<?xml version="1.0" encoding="UTF-8"?>
<svg xmlns="http://www.w3.org/2000/svg" 
     viewBox="0 0 64 64" 
     role="img" 
     aria-label="Dream Car icon"
     shape-rendering="geometricPrecision">
  <title>Dream Car</title>
  <defs>
    <style>
      .dc-primary { fill: #1A2B4A; }
      .dc-accent { fill: #FF6B35; }
    </style>
    <linearGradient id="dcGradient" x1="0%" y1="0%" x2="100%" y2="100%">
      <stop offset="0%" style="stop-color:#1A2B4A;stop-opacity:1" />
      <stop offset="100%" style="stop-color:#0F1829;stop-opacity:1" />
    </linearGradient>
  </defs>
  
  <circle cx="32" cy="32" r="30" fill="url(#dcGradient)"/>
  <path class="dc-accent" d="M18 16 L28 16 C36 16 40 20 40 28 C40 36 36 40 28 40 L18 40 Z M23 21 L23 35 L28 35 C32.5 35 35 32.5 35 28 C35 23.5 32.5 21 28 21 Z"/>
  <path class="dc-accent" d="M44 40 L44 35 C48.5 35 51 32.5 51 28 C51 23.5 48.5 21 44 21 L44 16 C51 16 56 20 56 28 C56 36 51 40 44 40 Z"/>
  <path class="dc-accent" opacity="0.3" d="M32 8 A24 24 0 0 1 56 32" stroke="#FF6B35" stroke-width="1.5" fill="none"/>
</svg>
